<svg width="170" height="139" viewBox="0 0 170 139" fill="none" xmlns="http://www.w3.org/2000/svg">
  <path fill-rule="evenodd" clip-rule="evenodd" d="M79.2249 5.10443V26.2411C79.2249 29.0025 81.9452 31.2411 85.3007 31.2411C88.6563 31.2411 91.3765 29.0025 91.3765 26.2411V5.10443C91.3765 2.34301 88.6563 0.104431 85.3007 0.104431C81.9452 0.104431 79.2249 2.34301 79.2249 5.10443ZM84.6931 102C106.504 102 124.186 87.4493 124.186 69.5C124.186 51.5507 106.504 37 84.6931 37C62.882 37 45.2005 51.5507 45.2005 69.5C45.2005 87.4493 62.882 102 84.6931 102ZM6.44228 73H32.1267C35.4822 73 38.2024 70.7614 38.2024 68C38.2024 65.2386 35.4822 63 32.1267 63H6.44228C3.08671 63 0.366486 65.2386 0.366486 68C0.366486 70.7614 3.08671 73 6.44228 73ZM163.071 73H137.387C134.031 73 131.311 70.7614 131.311 68C131.311 65.2386 134.031 63 137.387 63H163.071C166.426 63 169.147 65.2386 169.147 68C169.147 70.7614 166.426 73 163.071 73ZM79.2249 134V112.863C79.2249 110.102 81.9452 107.863 85.3007 107.863C88.6563 107.863 91.3765 110.102 91.3765 112.863V134C91.3765 136.761 88.6563 139 85.3007 139C81.9452 139 79.2249 136.761 79.2249 134ZM25.4948 27.1474L43.6564 42.0933C46.0292 44.0459 49.8762 44.0459 52.2489 42.0933C54.6216 40.1407 54.6216 36.9748 52.2489 35.0222L34.0873 20.0764C31.7146 18.1237 27.8676 18.1237 25.4948 20.0764C23.1221 22.029 23.1221 25.1948 25.4948 27.1474ZM136.248 118.29L118.086 103.345C115.714 101.392 115.714 98.2261 118.086 96.2734C120.459 94.3208 124.306 94.3208 126.679 96.2734L144.84 111.219C147.213 113.172 147.213 116.338 144.84 118.29C142.468 120.243 138.621 120.243 136.248 118.29ZM134.943 20.7835L116.781 35.7293C114.409 37.682 114.409 40.8478 116.781 42.8004C119.154 44.753 123.001 44.753 125.374 42.8004L143.536 27.8545C145.908 25.9019 145.908 22.7361 143.536 20.7835C141.163 18.8309 137.316 18.8309 134.943 20.7835ZM24.1899 111.926L42.3515 96.9805C44.7243 95.0279 48.5713 95.0279 50.944 96.9805C53.3167 98.9332 53.3167 102.099 50.944 104.052L32.7824 118.997C30.4097 120.95 26.5627 120.95 24.1899 118.997C21.8172 117.045 21.8172 113.879 24.1899 111.926Z" fill="url(#paint0_linear)"/>
  <defs>
    <linearGradient id="paint0_linear" x1="0.366486" y1="0.104431" x2="0.366486" y2="139" gradientUnits="userSpaceOnUse">
      <stop stop-color="#FFFCC9"/>
      <stop offset="1" stop-color="#FFF799"/>
    </linearGradient>
  </defs>
</svg>
